<svg width="115" height="34" viewBox="0 0 115 34" fill="none" xmlns="http://www.w3.org/2000/svg">
<g clip-path="url(#clip0_122_1293)">
<path d="M33.5775 11.1575H38.3804C41.0408 11.1575 42.422 12.2483 42.422 14.2966V14.3986C42.4599 14.9989 42.2812 15.5928 41.9182 16.0724C41.5553 16.552 41.0323 16.8854 40.4444 17.012C41.1485 17.074 41.7997 17.4112 42.2567 17.9504C42.7136 18.4897 42.9394 19.1874 42.8851 19.8922V19.9628C42.8851 22.1994 41.4175 23.3766 38.6001 23.3766H33.5775V11.1575ZM37.933 16.1723C39.2672 16.1723 39.793 15.6935 39.793 14.6027V14.5321C39.793 13.5118 39.2122 13.0488 37.9173 13.0488H36.2771V16.188L37.933 16.1723ZM38.1685 21.4539C39.534 21.4539 40.154 20.8339 40.154 19.7274V19.6567C40.154 18.5266 39.534 17.9537 38.0351 17.9537H36.2771V21.4617L38.1685 21.4539Z" fill="#8C9498"/>
<path d="M43.6072 20.8889C43.6072 18.8013 45.5142 18.0165 48.2531 18.0165H49.2577V17.6634C49.2577 16.6039 48.9359 16.0232 47.8058 16.0232C47.6229 16.0015 47.4374 16.0174 47.2609 16.07C47.0844 16.1227 46.9205 16.2109 46.7793 16.3293C46.6382 16.4476 46.5227 16.5936 46.4401 16.7583C46.3575 16.9229 46.3095 17.1028 46.299 17.2867H43.9446C44.1016 15.1678 45.7732 14.226 47.9627 14.226C50.1523 14.226 51.6983 15.1128 51.6983 17.5378V23.3609H49.289V22.2858C48.9867 22.7118 48.579 23.0522 48.1059 23.2736C47.6327 23.4951 47.1102 23.5901 46.5894 23.5493C44.9727 23.5493 43.6072 22.7645 43.6072 20.8889ZM49.2577 20.2375V19.4527H48.3002C46.864 19.4527 46.0322 19.7666 46.0322 20.7162C46.0322 21.3676 46.4246 21.7992 47.3271 21.7992C48.4179 21.8306 49.2577 21.2263 49.2577 20.2375Z" fill="#8C9498"/>
<path d="M52.742 20.5592H55.0492C55.1513 21.344 55.5437 21.8306 56.6188 21.8306C57.5763 21.8306 58.0236 21.4696 58.0236 20.8496C58.0236 20.2296 57.4899 19.9785 56.2107 19.798C53.8564 19.437 52.9146 18.7542 52.9146 17.012C52.9146 15.2698 54.6255 14.226 56.4462 14.226C58.4317 14.226 59.9149 14.948 60.1347 16.9963H57.8666C57.7332 16.2586 57.3173 15.9211 56.4697 15.9211C55.6221 15.9211 55.2062 16.2978 55.2062 16.8394C55.2062 17.3809 55.63 17.6241 56.9249 17.8125C59.1615 18.1343 60.3936 18.6993 60.3936 20.6142C60.3936 22.5291 58.9967 23.5493 56.6345 23.5493C54.2723 23.5493 52.8283 22.4898 52.742 20.5592Z" fill="#8C9498"/>
<path d="M61.0293 19.0053V18.8719C60.9996 18.2586 61.0975 17.6458 61.317 17.0723C61.5365 16.4988 61.8727 15.9772 62.3043 15.5404C62.7359 15.1037 63.2535 14.7613 63.8243 14.535C64.3951 14.3088 65.0067 14.2035 65.6204 14.226C67.9276 14.226 69.9759 15.5758 69.9759 18.7699V19.4527H63.5642C63.627 20.9359 64.4353 21.807 65.7773 21.807C66.9231 21.807 67.4882 21.3126 67.6451 20.5592H69.9995C69.7091 22.4898 68.1709 23.565 65.7302 23.565C62.9913 23.5493 61.0293 21.862 61.0293 19.0053ZM67.5666 17.9302C67.4882 16.5803 66.7975 15.9682 65.6204 15.9682C65.0904 15.9657 64.5801 16.1687 64.1967 16.5346C63.8132 16.9004 63.5865 17.4007 63.5642 17.9302H67.5666Z" fill="#8C9498"/>
<path d="M70.6273 19.0053V18.8719C70.5974 18.2572 70.6958 17.643 70.9162 17.0684C71.1366 16.4938 71.4742 15.9714 71.9075 15.5344C72.3408 15.0974 72.8604 14.7553 73.4331 14.5301C74.0058 14.3048 74.6191 14.2012 75.234 14.2259C77.3059 14.2259 79.2129 15.1284 79.4405 17.6947H77.0861C77.0705 17.4744 77.0107 17.2595 76.9104 17.0628C76.8101 16.8661 76.6712 16.6915 76.5021 16.5495C76.333 16.4075 76.1371 16.3009 75.926 16.2361C75.7149 16.1713 75.4929 16.1496 75.2733 16.1722C73.9941 16.1722 73.1386 17.1296 73.1386 18.8405V18.9739C73.1386 20.771 73.9234 21.6893 75.3282 21.6893C75.5672 21.703 75.8066 21.6691 76.0323 21.5894C76.2581 21.5098 76.4658 21.386 76.6432 21.2253C76.8207 21.0646 76.9645 20.8702 77.0661 20.6535C77.1677 20.4367 77.2252 20.2019 77.2352 19.9627H79.4719C79.3385 22.0816 77.8003 23.5492 75.2026 23.5492C72.605 23.5492 70.6273 21.9247 70.6273 19.0053Z" fill="#8C9498"/>
<path d="M80.0449 20.8888C80.0449 18.8013 81.952 18.0165 84.683 18.0165H85.6954V17.6634C85.6954 16.6039 85.3658 16.0231 84.2435 16.0231C84.0594 15.9991 83.8723 16.0133 83.6939 16.0649C83.5155 16.1165 83.3497 16.2043 83.2068 16.3229C83.0639 16.4415 82.947 16.5883 82.8634 16.7541C82.7798 16.92 82.7314 17.1012 82.721 17.2867H80.3667C80.5236 15.1677 82.1952 14.226 84.3769 14.226C86.5587 14.226 88.1204 15.1128 88.1204 17.5378V23.3609H85.7111V22.2858C85.4087 22.7118 85.0011 23.0521 84.5279 23.2736C84.0547 23.495 83.5322 23.59 83.0114 23.5493C81.4418 23.5493 80.0449 22.7645 80.0449 20.8888ZM85.6954 20.2375V19.4527H84.7536C83.3175 19.4527 82.4778 19.7666 82.4778 20.7162C82.4778 21.3676 82.878 21.7992 83.7805 21.7992C84.8871 21.8306 85.7268 21.2263 85.7268 20.2375H85.6954Z" fill="#8C9498"/>
<path d="M89.8624 14.3986H92.3345V15.7641C92.6041 15.279 93.0008 14.8765 93.482 14.5999C93.9632 14.3233 94.5107 14.1832 95.0656 14.1946C95.5952 14.1522 96.1243 14.2821 96.574 14.565C97.0237 14.8478 97.37 15.2684 97.5612 15.7641C97.8908 15.2719 98.3387 14.8702 98.8639 14.596C99.389 14.3217 99.9746 14.1837 100.567 14.1946C102.223 14.1946 103.502 15.2383 103.502 17.6084V23.3295H101.046V17.9145C101.046 16.7687 100.536 16.2585 99.6409 16.2585C99.4029 16.2482 99.1655 16.2893 98.9448 16.3791C98.7242 16.4689 98.5255 16.6052 98.3623 16.7788C98.1992 16.9524 98.0754 17.1591 97.9994 17.3849C97.9235 17.6107 97.8971 17.8502 97.9222 18.0871V23.3609H95.458V17.9145C95.458 16.7687 94.9322 16.2585 94.0611 16.2585C93.8224 16.247 93.5841 16.2873 93.3625 16.3765C93.1409 16.4658 92.9412 16.602 92.7772 16.7757C92.6132 16.9494 92.4887 17.1566 92.4123 17.3829C92.3358 17.6093 92.3093 17.8495 92.3345 18.0871V23.3609H89.8624V14.3986Z" fill="#8C9498"/>
<path d="M105.197 14.3986H107.677V15.8034C107.973 15.312 108.39 14.9056 108.89 14.6237C109.389 14.3417 109.953 14.1939 110.526 14.1946C112.716 14.1946 114.45 15.8191 114.45 18.7699V18.9111C114.45 21.862 112.778 23.5179 110.526 23.5179C109.953 23.5414 109.385 23.4075 108.883 23.1308C108.38 22.8541 107.964 22.4451 107.677 21.9483V26.4059H105.197V14.3986ZM111.907 18.7934C111.907 16.9806 111.021 16.0938 109.773 16.0938C108.525 16.0938 107.591 16.9963 107.591 18.7934V18.9268C107.591 20.7162 108.446 21.5873 109.796 21.5873C111.146 21.5873 111.907 20.6769 111.907 18.9582V18.7934Z" fill="#8C9498"/>
<path fill-rule="evenodd" clip-rule="evenodd" d="M15.2292 6.89213C8.26539 6.89213 4.6337 12.7906 2.60031 18.5558C2.3545 19.2527 1.59028 19.6184 0.893362 19.3726C0.394897 19.1968 0.065874 18.7557 0.0088511 18.2638C-0.0138509 18.068 0.00655913 17.8641 0.0765529 17.6656C2.13976 11.8159 6.35595 4.216 15.2292 4.216C19.8672 4.216 23.187 7.28435 25.334 10.9706C27.4866 14.6665 28.6344 19.2429 28.893 22.9379C28.9116 23.2035 28.8505 23.4686 28.7176 23.6992C27.4742 25.8576 25.4057 27.2642 23.0477 28.1257C20.6956 28.9851 17.971 29.3362 15.24 29.3371C12.9196 29.3733 10.6187 28.9089 8.49398 27.9756C6.36589 27.0407 4.4647 25.6575 2.92036 23.9203C2.59182 23.5508 2.49388 23.0302 2.66565 22.5665L2.66666 22.5638L2.66858 22.5586L2.67512 22.5412L2.69881 22.4787C2.71924 22.4252 2.74885 22.3485 2.78701 22.252C2.86327 22.059 2.97395 21.7857 3.11389 21.4587C3.39253 20.8075 3.79284 19.93 4.27372 19.044C4.74827 18.1696 5.33182 17.2296 5.98805 16.489C6.58629 15.8139 7.51617 14.9914 8.70637 14.9833L8.71544 14.9833C9.55647 14.9833 10.2473 15.3684 10.7446 15.7385C11.2459 16.1117 11.7011 16.5859 12.0659 16.9719C12.1077 17.0162 12.1484 17.0593 12.188 17.1013C12.5277 17.4615 12.7875 17.737 13.0344 17.9433C13.0621 17.9665 13.0876 17.9869 13.1108 18.0049C13.1911 17.9229 13.2869 17.8154 13.3972 17.6787C13.7893 17.1925 14.2298 16.5076 14.6561 15.7744C15.0768 15.0509 15.4596 14.322 15.7388 13.7707C15.8778 13.496 15.9901 13.2675 16.0671 13.1086C16.1056 13.0291 16.1353 12.9672 16.1551 12.9257L16.1772 12.8791L16.1824 12.868L16.1835 12.8656C16.4972 12.1966 17.294 11.9082 17.9631 12.2218C18.6322 12.5354 18.9204 13.3321 18.6068 14.0013L18.6039 14.0074L18.5969 14.0222L18.5712 14.0764C18.5489 14.1231 18.5166 14.1907 18.4752 14.2761C18.3924 14.4468 18.2733 14.6892 18.1263 14.9795C17.8333 15.5583 17.425 16.3362 16.9696 17.1195C16.5199 17.893 15.9995 18.715 15.4801 19.3589C15.2225 19.6782 14.9305 19.9976 14.6148 20.2487C14.3357 20.4707 13.8434 20.7986 13.2123 20.7986C12.3778 20.7986 11.7202 20.3326 11.3183 19.9968C10.9396 19.6803 10.5612 19.278 10.2434 18.9401C10.2014 18.8955 10.1605 18.852 10.1208 18.81C9.74401 18.4112 9.43601 18.1006 9.1466 17.8852C8.89295 17.6964 8.76344 17.6653 8.72625 17.6603C8.72625 17.6603 8.72358 17.6613 8.72124 17.6622C8.68033 17.6766 8.43454 17.7632 7.99099 18.2638C7.53111 18.7828 7.06058 19.5193 6.62576 20.3205C6.19726 21.11 5.8329 21.907 5.57421 22.5115C5.54087 22.5894 5.50939 22.6639 5.47985 22.7345C6.65748 23.9079 8.04392 24.8549 9.57028 25.5254C11.3457 26.3053 13.2685 26.6927 15.2074 26.6611L15.2292 26.661C17.7605 26.661 20.1564 26.333 22.1293 25.6121C23.9444 24.949 25.329 23.9825 26.1896 22.6993C25.898 19.411 24.8505 15.4577 23.0215 12.3175C21.1072 9.03086 18.5097 6.89213 15.2292 6.89213ZM12.8909 18.1951C12.8909 18.1951 12.8967 18.1906 12.908 18.1849C12.8964 18.1927 12.8909 18.1951 12.8909 18.1951Z" fill="#8C9498"/>
</g>
<defs>
<clipPath id="clip0_122_1293">
<rect width="114.552" height="33.3241" fill="white"/>
</clipPath>
</defs>
</svg>
