<svg width="34" height="34" viewBox="0 0 34 34" fill="none" xmlns="http://www.w3.org/2000/svg">
<rect width="34" height="34" rx="17" fill="white"/>
<g clip-path="url(#clip0_122_1483)">
<path d="M17.0033 12.9573C14.7319 12.9573 12.8997 14.7608 12.8997 16.9968C12.8997 19.2327 14.7319 21.0362 17.0033 21.0362C19.2747 21.0362 21.1069 19.2327 21.1069 16.9968C21.1069 14.7608 19.2747 12.9573 17.0033 12.9573ZM17.0033 19.6229C15.5355 19.6229 14.3355 18.4452 14.3355 16.9968C14.3355 15.5483 15.5319 14.3706 17.0033 14.3706C18.4747 14.3706 19.6712 15.5483 19.6712 16.9968C19.6712 18.4452 18.4712 19.6229 17.0033 19.6229ZM22.2319 12.7921C22.2319 13.3159 21.8033 13.7343 21.2747 13.7343C20.7426 13.7343 20.3176 13.3124 20.3176 12.7921C20.3176 12.2718 20.7462 11.8499 21.2747 11.8499C21.8033 11.8499 22.2319 12.2718 22.2319 12.7921ZM24.9497 13.7483C24.889 12.4862 24.5962 11.3683 23.6569 10.4472C22.7212 9.52607 21.5855 9.23779 20.3033 9.17451C18.9819 9.10068 15.0212 9.10068 13.6997 9.17451C12.4212 9.23428 11.2855 9.52256 10.3462 10.4437C9.40689 11.3647 9.11761 12.4827 9.05332 13.7448C8.97832 15.0456 8.97832 18.9444 9.05332 20.2452C9.11403 21.5073 9.40689 22.6253 10.3462 23.5464C11.2855 24.4675 12.4176 24.7558 13.6997 24.819C15.0212 24.8929 18.9819 24.8929 20.3033 24.819C21.5855 24.7593 22.7212 24.471 23.6569 23.5464C24.5926 22.6253 24.8855 21.5073 24.9497 20.2452C25.0247 18.9444 25.0247 15.0491 24.9497 13.7483ZM23.2426 21.6409C22.964 22.33 22.4247 22.8608 21.7212 23.1386C20.6676 23.5499 18.1676 23.455 17.0033 23.455C15.839 23.455 13.3355 23.5464 12.2855 23.1386C11.5855 22.8643 11.0462 22.3335 10.764 21.6409C10.3462 20.6038 10.4426 18.1429 10.4426 16.9968C10.4426 15.8507 10.3497 13.3862 10.764 12.3526C11.0426 11.6636 11.5819 11.1327 12.2855 10.855C13.339 10.4437 15.839 10.5386 17.0033 10.5386C18.1676 10.5386 20.6712 10.4472 21.7212 10.855C22.4212 11.1292 22.9605 11.6601 23.2426 12.3526C23.6605 13.3897 23.564 15.8507 23.564 16.9968C23.564 18.1429 23.6605 20.6073 23.2426 21.6409Z" fill="#192031"/>
</g>
<defs>
<clipPath id="clip0_122_1483">
<rect width="16" height="18" fill="white" transform="translate(9 8)"/>
</clipPath>
</defs>
</svg>
