<svg width="34" height="34" viewBox="0 0 34 34" fill="none" xmlns="http://www.w3.org/2000/svg">
<rect width="34" height="34" rx="17" fill="white"/>
<g clip-path="url(#clip0_122_1479)">
<path d="M12.6327 24V13.8795H9.20239V24H12.6327ZM10.918 12.4969C12.1142 12.4969 12.8588 11.7198 12.8588 10.7486C12.8365 9.75556 12.1142 9 10.9407 9C9.76731 9 9 9.75558 9 10.7486C9 11.7198 9.7444 12.4969 10.8956 12.4969H10.9179H10.918ZM14.5313 24H17.9617V18.3482C17.9617 18.0458 17.9839 17.7436 18.0745 17.5274C18.3225 16.923 18.8869 16.2971 19.8345 16.2971C21.0758 16.2971 21.5724 17.2252 21.5724 18.5857V23.9999H25.0025V18.1969C25.0025 15.0883 23.3101 13.6419 21.0532 13.6419C19.2027 13.6419 18.3902 14.6563 17.9388 15.3471H17.9617V13.8793H14.5314C14.5764 14.829 14.5314 23.9998 14.5314 23.9998L14.5313 24Z" fill="#192031"/>
</g>
<defs>
<clipPath id="clip0_122_1479">
<rect width="16" height="15" fill="white" transform="translate(9 9)"/>
</clipPath>
</defs>
</svg>
