<svg width="99" height="34" viewBox="0 0 99 34" fill="none" xmlns="http://www.w3.org/2000/svg">
<g clip-path="url(#clip0_122_1295)">
<path fill-rule="evenodd" clip-rule="evenodd" d="M1.69321 24.8903C-0.564433 22.6518 -0.564397 19.0225 1.69328 16.784L7.82522 10.7042C9.73377 8.81184 12.6447 8.51918 14.8633 9.82618C15.5496 10.2304 15.5436 11.1578 14.9791 11.7175C14.4147 12.2771 13.4933 12.2289 12.7272 12.0067C11.7462 11.7222 10.6429 11.9636 9.86922 12.7307L3.73724 18.8106C2.60841 19.9298 2.60839 21.7445 3.73721 22.8637C4.86606 23.983 6.69631 23.983 7.82515 22.8637L20.0889 10.7042C22.3467 8.46573 26.007 8.46572 28.2648 10.7042L34.3968 16.784C36.6545 19.0224 36.6545 22.6518 34.3968 24.8903C32.1391 27.1288 28.4787 27.1288 26.2209 24.8903L24.177 22.8637L21.622 25.397C19.7135 27.2893 16.8025 27.5819 14.5839 26.2749C13.8977 25.8707 13.9037 24.9433 14.4681 24.3837C15.0325 23.824 15.9538 23.8722 16.72 24.0943C17.7011 24.3789 18.8043 24.1375 19.578 23.3704L22.206 20.7648C23.2946 19.6855 25.0594 19.6855 26.148 20.7648L28.2649 22.8637C29.3938 23.983 31.224 23.983 32.3528 22.8637C33.4816 21.7445 33.4816 19.9298 32.3528 18.8106L26.2208 12.7308C25.0919 11.6116 23.2618 11.6116 22.1329 12.7308L9.86915 24.8904C7.6114 27.1289 3.9509 27.1289 1.69321 24.8903Z" fill="#1D2D35" fill-opacity="0.5"/>
<path d="M59.1815 12.2741C57.7609 12.2741 56.6847 12.7828 55.9744 13.8002C55.3502 12.7828 54.3601 12.2741 53.0471 12.2741C51.6911 12.2741 50.7009 12.7404 50.0551 13.6942V12.5708H47.2785V23.1687H50.0551V17.2126C50.0551 15.6654 50.8516 14.8176 52.0785 14.8176C53.2193 14.8176 53.8865 15.5594 53.8865 16.8312V23.1687H56.6632V17.2126C56.6632 15.6654 57.395 14.8176 58.665 14.8176C59.8058 14.8176 60.473 15.5594 60.473 16.8312V23.1687H63.2497V16.6404C63.2497 13.9909 61.6568 12.2741 59.1815 12.2741Z" fill="#1D2D35" fill-opacity="0.5"/>
<path d="M73.5719 13.8214C72.7324 12.7828 71.5701 12.2741 70.0634 12.2741C68.6213 12.2741 67.3944 12.8252 66.3613 13.9061C65.3496 14.9871 64.833 16.3013 64.833 17.8698C64.833 19.4382 65.3496 20.7736 66.3613 21.8546C67.3944 22.9355 68.6213 23.4654 70.0634 23.4654C71.5701 23.4654 72.7324 22.9567 73.5719 21.9181V23.1687H76.3487V12.5708H73.5719V13.8214ZM68.4491 20.0317C67.8895 19.4594 67.6096 18.7387 67.6096 17.8698C67.6096 17.0007 67.8895 16.2801 68.4491 15.729C69.0088 15.1567 69.719 14.8811 70.58 14.8811C71.441 14.8811 72.1513 15.1567 72.7109 15.729C73.2921 16.2801 73.5719 17.0007 73.5719 17.8698C73.5719 18.7387 73.2921 19.4594 72.7109 20.0317C72.1513 20.5828 71.441 20.8583 70.58 20.8583C69.719 20.8583 69.0088 20.5828 68.4491 20.0317Z" fill="#1D2D35" fill-opacity="0.5"/>
<path d="M86.5938 14.3936V12.5708H78.5222V15.1355H82.8483L78.3063 21.3458V23.1686H86.8089V20.6039H82.03L86.5938 14.3936Z" fill="#1D2D35" fill-opacity="0.5"/>
<path d="M98.4185 18.9931C98.4832 18.5904 98.5261 18.2301 98.5261 17.8698C98.5261 16.2801 98.0101 14.9659 96.9767 13.8849C95.9651 12.804 94.652 12.2741 93.0808 12.2741C91.4232 12.2741 90.0461 12.804 88.9909 13.8849C87.9364 14.9447 87.3979 16.2801 87.3979 17.8698C87.3979 19.4806 87.9364 20.816 89.0127 21.8757C90.0889 22.9355 91.5097 23.4654 93.2959 23.4654C95.362 23.4654 96.9339 22.7024 97.9883 21.1975L95.75 19.9257C95.2115 20.6252 94.394 20.9855 93.3388 20.9855C91.6819 20.9855 90.6703 20.3285 90.304 18.9931H98.4185ZM90.2612 16.8735C90.5838 15.517 91.5954 14.7328 93.0808 14.7328C94.3504 14.7328 95.4266 15.4322 95.75 16.8735H90.2612Z" fill="#1D2D35" fill-opacity="0.5"/>
</g>
<defs>
<clipPath id="clip0_122_1295">
<rect width="98.5839" height="33.3241" fill="white"/>
</clipPath>
</defs>
</svg>