<svg width="34" height="34" viewBox="0 0 34 34" fill="none" xmlns="http://www.w3.org/2000/svg">
<rect width="34" height="34" rx="17" fill="white"/>
<g clip-path="url(#clip0_122_1475)">
<path d="M25.9998 11.7044C25.3257 11.9889 24.6108 12.1756 23.8787 12.2584C24.6412 11.823 25.2267 11.1335 25.5024 10.312C24.7776 10.7218 23.9845 11.0105 23.1574 11.1657C22.4838 10.482 21.5241 10.0547 20.4619 10.0547C18.4224 10.0547 16.7689 11.6299 16.7689 13.5728C16.7689 13.8486 16.8015 14.117 16.8645 14.3746C13.7953 14.2278 11.0742 12.8272 9.25279 10.6987C8.93498 11.2183 8.75287 11.8227 8.75287 12.4674C8.75287 13.688 9.40488 14.7648 10.3957 15.3957C9.80928 15.3782 9.23574 15.2273 8.72299 14.9556C8.72278 14.9704 8.72278 14.9851 8.72278 14.9999C8.72278 16.7045 9.99572 18.1265 11.685 18.4497C11.1412 18.5906 10.5708 18.6112 10.0174 18.5099C10.4873 19.9077 11.8511 20.9248 13.467 20.9532C12.2032 21.8968 10.6108 22.4593 8.8807 22.4593C8.58258 22.4593 8.28867 22.4426 7.99976 22.4101C9.63403 23.4083 11.5751 23.9908 13.6606 23.9908C20.4533 23.9908 24.1677 18.6299 24.1677 13.9808C24.1677 13.8282 24.1642 13.6765 24.157 13.5256C24.88 13.0277 25.504 12.411 25.9998 11.7044Z" fill="#192031"/>
</g>
<defs>
<clipPath id="clip0_122_1475">
<rect width="18" height="14" fill="white" transform="translate(7.99976 10)"/>
</clipPath>
</defs>
</svg>
