<svg width="109" height="34" viewBox="0 0 109 34" fill="none" xmlns="http://www.w3.org/2000/svg">
<path d="M8.87308 18.1833C8.87308 16.3737 7.51207 15.102 5.84026 15.102C4.16844 15.102 2.80742 16.3952 2.80742 18.1833C2.80742 19.9499 4.16844 21.2647 5.84026 21.2647C7.51376 21.263 8.87308 19.9928 8.87308 18.1833ZM8.89698 23.5691V22.1686C8.07217 23.1385 6.84436 23.7406 5.37406 23.7406C2.31902 23.7406 0 21.3702 0 18.1833C0 15.0162 2.40782 12.6045 5.44236 12.6045C6.87001 12.6045 8.07392 13.2083 8.89867 14.1551V12.7975H11.6412V23.5691H8.89698Z" fill="#1D2D35" fill-opacity="0.5"/>
<path d="M24.9627 21.1772C24.003 21.1772 23.7366 20.8324 23.7366 19.9285V15.1465H25.4989V12.7975H23.7366V10.1698H20.9257V12.7975H17.3055V12.1427C17.3055 11.2371 17.6624 10.8923 18.6443 10.8923H19.2608V8.80234H17.9083C15.5892 8.80234 14.4963 9.53473 14.4963 11.7748V12.7959H12.9355V15.1448H14.4963V23.5674H17.3072V15.1448H20.9274V20.4233C20.9274 22.6205 21.7967 23.5691 24.0713 23.5691H25.5211V21.1772H24.9627Z" fill="#1D2D35" fill-opacity="0.5"/>
<path d="M35.0432 17.2133C34.8434 15.8128 33.66 14.9732 32.2785 14.9732C30.8952 14.9732 29.758 15.7914 29.4694 17.2133H35.0432ZM29.4455 18.8942C29.647 20.4877 30.8287 21.3933 32.3229 21.3933C33.5046 21.3933 34.4199 20.8538 34.9544 19.9928H37.8318C37.1624 22.2758 35.0432 23.7406 32.2563 23.7406C28.8887 23.7406 26.5253 21.4576 26.5253 18.2047C26.5253 14.9518 29.0237 12.6028 32.3246 12.6028C35.6478 12.6028 38.0556 14.9733 38.0556 18.2047C38.0556 18.4422 38.0334 18.6781 37.9889 18.8942H29.4455Z" fill="#1D2D35" fill-opacity="0.5"/>
<path d="M55.9264 18.1833C55.9264 16.438 54.5654 15.102 52.8935 15.102C51.2217 15.102 49.8607 16.3952 49.8607 18.1833C49.8607 19.9499 51.2217 21.2647 52.8935 21.2647C54.5654 21.263 55.9264 19.9285 55.9264 18.1833ZM47.0943 12.7975H49.8368V14.198C50.6616 13.2066 51.8877 12.6045 53.3597 12.6045C56.3703 12.6045 58.7338 14.9964 58.7338 18.1618C58.7338 21.3289 56.3259 23.7422 53.2931 23.7422C51.8877 23.7422 50.7282 23.2028 49.9256 22.2989V28.0014H47.0943V12.7975Z" fill="#1D2D35" fill-opacity="0.5"/>
<path d="M68.6195 18.1833C68.6195 16.3737 67.2602 15.102 65.5865 15.102C63.9148 15.102 62.5538 16.3952 62.5538 18.1833C62.5538 19.9499 63.9148 21.2647 65.5865 21.2647C67.2602 21.263 68.6195 19.9928 68.6195 18.1833ZM68.6435 23.5691V22.1686C67.8187 23.1385 66.5906 23.7406 65.1202 23.7406C62.0654 23.7406 59.7464 21.3702 59.7464 18.1833C59.7464 15.0162 62.1542 12.6045 65.1871 12.6045C66.6146 12.6045 67.8187 13.2083 68.6435 14.1551V12.7975H71.3862V23.5691H68.6435Z" fill="#1D2D35" fill-opacity="0.5"/>
<path d="M42.1505 13.8532C42.1505 13.8532 42.849 12.6045 44.5583 12.6045C45.2892 12.6045 45.7623 12.847 45.7623 12.847V15.5952C45.7623 15.5952 44.7308 14.9799 43.783 15.1036C42.8353 15.2273 42.2359 16.0686 42.2393 17.1936V23.5707H39.408V12.7992H42.1505V13.8532Z" fill="#1D2D35" fill-opacity="0.5"/>
<path d="M84.1949 12.7975L77.2704 27.9667H74.3504L77.069 22.1026L72.4721 12.7975H75.7818L78.4712 19.0146L81.2308 12.7975H84.1949Z" fill="#1D2D35" fill-opacity="0.5"/>
<path d="M106.3 12.5534L99.4348 8.72645C97.4195 7.60312 94.9008 9.00688 94.9008 11.2552V11.6478C94.9008 12.0024 95.097 12.3307 95.4146 12.5072L96.7109 13.2297C97.0915 13.4425 97.5662 13.1769 97.5662 12.753V11.7765C97.5662 11.2882 98.1131 10.983 98.5502 11.2272L104.496 14.5427C104.934 14.7869 104.934 15.3972 104.496 15.6397L98.5502 18.9553C98.1131 19.1994 97.5662 18.8942 97.5662 18.406V17.8863C97.5662 15.638 95.0476 14.2326 93.031 15.3576L86.1662 19.1845C84.151 20.3079 84.151 23.1187 86.1662 24.242L93.031 28.069C95.0457 29.1923 97.5662 27.7886 97.5662 25.5402V25.1476C97.5662 24.793 97.3701 24.4664 97.0525 24.2882L95.7562 23.5641C95.3756 23.3513 94.9008 23.6169 94.9008 24.0408V25.0174C94.9008 25.5056 94.3547 25.8107 93.9169 25.5666L87.9711 22.251C87.534 22.0069 87.534 21.3966 87.9711 21.1525L93.9169 17.8368C94.3547 17.5927 94.9008 17.8979 94.9008 18.3862V18.9058C94.9008 21.1541 97.4195 22.5595 99.4348 21.4345L106.3 17.6076C108.315 16.4875 108.315 13.6767 106.3 12.5534Z" fill="#1D2D35" fill-opacity="0.5"/>
</svg>
