<svg width="24" height="24" viewBox="0 0 24 24" fill="none" xmlns="http://www.w3.org/2000/svg">
<path d="M4.6437 4.7998H20.5437C22.0437 4.7998 22.7997 5.5078 22.7997 6.9478V17.0518C22.7997 18.4798 22.0437 19.1998 20.5437 19.1998H4.6437C3.1437 19.1998 2.3877 18.4798 2.3877 17.0518V6.9478C2.3877 5.5078 3.1437 4.7998 4.6437 4.7998ZM12.5877 15.1198L20.6757 8.4838C20.9637 8.2438 21.1917 7.6918 20.8317 7.1998C20.4837 6.7078 19.8477 6.6958 19.4277 6.9958L12.5877 11.6278L5.7597 6.9958C5.3397 6.6958 4.7037 6.7078 4.3557 7.1998C3.9957 7.6918 4.2237 8.2438 4.5117 8.4838L12.5877 15.1198Z" fill="#192031"/>
</svg>
